/* XPM */
static char * alienblastericon_xpm[] = {
"32 32 828 2",
"  	c #868686",
". 	c #686868",
"+ 	c #5B5B5B",
"@ 	c #444444",
"# 	c #3C3C3C",
"$ 	c #696969",
"% 	c #929293",
"& 	c #A0A0A1",
"* 	c #ACACAE",
"= 	c #B7B7BA",
"- 	c #C3C3C5",
"; 	c #92909B",
"> 	c #595669",
", 	c #666374",
"' 	c #8C8C98",
") 	c #AFAFB6",
"! 	c #CAC9CD",
"~ 	c #D8D7DA",
"{ 	c #DFDEE0",
"] 	c #E2E2E6",
"^ 	c #E7E7E9",
"/ 	c #EBEBED",
"( 	c #EEEEF0",
"_ 	c #F3F3F4",
": 	c #F6F6F6",
"< 	c #F4F3F4",
"[ 	c #D9D4D8",
"} 	c #B0A5AD",
"| 	c #8B7985",
"1 	c #6D5664",
"2 	c #907E8B",
"3 	c #DDD8DB",
"4 	c #757575",
"5 	c #525352",
"6 	c #454444",
"7 	c #454545",
"8 	c #5A5A5C",
"9 	c #818082",
"0 	c #949395",
"a 	c #A1A1A4",
"b 	c #AFAEB1",
"c 	c #B6B6BA",
"d 	c #7B7987",
"e 	c #434056",
"f 	c #555264",
"g 	c #82808D",
"h 	c #A8A7B0",
"i 	c #C4C4C9",
"j 	c #D4D3D8",
"k 	c #DBDADE",
"l 	c #E0E0E2",
"m 	c #E4E4E7",
"n 	c #E9E9EB",
"o 	c #EEEDEF",
"p 	c #F2F2F3",
"q 	c #DFDFDF",
"r 	c #A3A2A2",
"s 	c #BFB9BD",
"t 	c #A1939C",
"u 	c #776270",
"v 	c #563E4E",
"w 	c #DED9DC",
"x 	c #FEFEFE",
"y 	c #777777",
"z 	c #585858",
"A 	c #544E4C",
"B 	c #775244",
"C 	c #8A5843",
"D 	c #846254",
"E 	c #878486",
"F 	c #ADADB3",
"G 	c #666572",
"H 	c #38354A",
"I 	c #5F5D6E",
"J 	c #8B8A96",
"K 	c #B0AFB7",
"L 	c #C9C9CE",
"M 	c #D6D6DA",
"N 	c #DCDCDF",
"O 	c #E1E0E4",
"P 	c #E5E5E8",
"Q 	c #EAEAEC",
"R 	c #EFEEF0",
"S 	c #F1F1F2",
"T 	c #E5E5E5",
"U 	c #D9D7D9",
"V 	c #6F6A6E",
"W 	c #70646C",
"X 	c #6B5563",
"Y 	c #5A4152",
"Z 	c #9C8D97",
"` 	c #EDEBEC",
" .	c #FFFFFF",
"..	c #5C5B5B",
"+.	c #655753",
"@.	c #A95527",
"#.	c #E45F07",
"$.	c #F36403",
"%.	c #E25F0C",
"&.	c #A5603E",
"*.	c #838087",
"=.	c #565461",
"-.	c #252330",
";.	c #5F5D6A",
">.	c #95939E",
",.	c #B8B8BE",
"'.	c #CDCCD1",
").	c #D8D7DB",
"!.	c #DDDDE0",
"~.	c #E2E2E4",
"{.	c #E6E6E8",
"].	c #F0F0F1",
"^.	c #B5B4B5",
"/.	c #939192",
"(.	c #7B7579",
"_.	c #62555D",
":.	c #604A59",
"<.	c #4E3746",
"[.	c #A3979F",
"}.	c #FAF9FA",
"|.	c #636262",
"1.	c #9E5531",
"2.	c #F06702",
"3.	c #FB8200",
"4.	c #FD8700",
"5.	c #FD7F00",
"6.	c #DE5E08",
"7.	c #60352A",
"8.	c #272632",
"9.	c #5B5964",
"0.	c #9C9AA4",
"a.	c #BFBEC4",
"b.	c #D1D1D5",
"c.	c #D9D9DC",
"d.	c #DEDEE1",
"e.	c #E3E3E5",
"f.	c #E7E7EA",
"g.	c #ECECEE",
"h.	c #F5F5F6",
"i.	c #8A8889",
"j.	c #5D575B",
"k.	c #65555F",
"l.	c #5C4454",
"m.	c #402B38",
"n.	c #34272D",
"o.	c #AAA7A7",
"p.	c #877874",
"q.	c #C95513",
"r.	c #F17601",
"s.	c #EF9100",
"t.	c #F09800",
"u.	c #F28D00",
"v.	c #F26E00",
"w.	c #903D16",
"x.	c #58555C",
"y.	c #9F9EA6",
"z.	c #C4C3C9",
"A.	c #D3D3D7",
"B.	c #DADADE",
"C.	c #DFDFE2",
"D.	c #E4E4E6",
"E.	c #E8E8EA",
"F.	c #EDEDEF",
"G.	c #DDDDDE",
"H.	c #DBDBDC",
"I.	c #EAE8EA",
"J.	c #B9B5B8",
"K.	c #6C646A",
"L.	c #5D4C57",
"M.	c #584050",
"N.	c #675460",
"O.	c #362C30",
"P.	c #2F2828",
"Q.	c #7A7474",
"R.	c #F4F3F3",
"S.	c #977B70",
"T.	c #DA5A0A",
"U.	c #DA7B01",
"V.	c #D19201",
"W.	c #CF9800",
"X.	c #D58C00",
"Y.	c #E17001",
"Z.	c #B54D17",
"`.	c #8B8285",
" +	c #C8C7CC",
".+	c #D5D5D9",
"++	c #DCDBDF",
"@+	c #E0E0E3",
"#+	c #E5E5E7",
"$+	c #EEEEEF",
"%+	c #BFBFBF",
"&+	c #B9B9B9",
"*+	c #B7B5B7",
"=+	c #918D90",
"-+	c #776A72",
";+	c #64515E",
">+	c #573E4F",
",+	c #94848E",
"'+	c #DBD7D9",
")+	c #6E6A6A",
"!+	c #332B2B",
"~+	c #554C4C",
"{+	c #CDCACA",
"]+	c #9B7E72",
"^+	c #CE5D0B",
"/+	c #B17D01",
"(+	c #7C9100",
"_+	c #699400",
":+	c #918A01",
"<+	c #C27103",
"[+	c #B5541E",
"}+	c #9E9596",
"|+	c #DDDCE0",
"1+	c #E2E1E4",
"2+	c #E6E5E8",
"3+	c #EBEAEC",
"4+	c #EFEFF0",
"5+	c #AFAFB0",
"6+	c #A6A6A6",
"7+	c #BDBBBD",
"8+	c #858083",
"9+	c #61555D",
"0+	c #675160",
"a+	c #5D4555",
"b+	c #A4969F",
"c+	c #F5F4F4",
"d+	c #A7A6A6",
"e+	c #362F2F",
"f+	c #4A3F3F",
"g+	c #9A9494",
"h+	c #FBFBFB",
"i+	c #9E877F",
"j+	c #B15A10",
"k+	c #627F01",
"l+	c #159200",
"m+	c #0A9600",
"n+	c #328C03",
"o+	c #927407",
"p+	c #9F5A2E",
"q+	c #A19C9E",
"r+	c #E2E2E5",
"s+	c #CECECF",
"t+	c #848384",
"u+	c #9A9799",
"v+	c #777175",
"w+	c #5B4E57",
"x+	c #5D4655",
"y+	c #6B5564",
"z+	c #B7ACB3",
"A+	c #FBFAFB",
"B+	c #DDDDDD",
"C+	c #524D4D",
"D+	c #433939",
"E+	c #696060",
"F+	c #E1DFDF",
"G+	c #7E777F",
"H+	c #664B17",
"I+	c #2B8101",
"J+	c #029D02",
"K+	c #05A405",
"L+	c #0B9204",
"M+	c #617610",
"N+	c #86674F",
"O+	c #B3B2B5",
"P+	c #E3E3E6",
"Q+	c #EDECEE",
"R+	c #E7E5E7",
"S+	c #B9B4B7",
"T+	c #70676D",
"U+	c #554650",
"V+	c #5A4252",
"W+	c #796572",
"X+	c #C9C1C6",
"Y+	c #FDFDFD",
"Z+	c #FCFCFC",
"`+	c #918E8E",
" @	c #393131",
".@	c #4F4444",
"+@	c #B1ACAC",
"@@	c #545162",
"#@	c #2D4928",
"$@	c #098404",
"%@	c #16AF16",
"&@	c #1DB41D",
"*@	c #049704",
"=@	c #367425",
"-@	c #82847E",
";@	c #D0D0D2",
">@	c #F7F7F7",
",@	c #EDEBED",
"'@	c #B0ACAF",
")@	c #968992",
"!@	c #715E6B",
"~@	c #563D4E",
"{@	c #DAD2D4",
"]@	c #F9EEE5",
"^@	c #FAF1E5",
"/@	c #FDF7EE",
"(@	c #D4D3D3",
"_@	c #524C4C",
":@	c #493E3E",
"<@	c #7D7676",
"[@	c #F1F0F0",
"}@	c #767482",
"|@	c #476A4E",
"1@	c #058A06",
"2@	c #2AB72A",
"3@	c #089408",
"4@	c #437344",
"5@	c #AEAEAF",
"6@	c #DEDCDD",
"7@	c #888487",
"8@	c #675B63",
"9@	c #6C5765",
"0@	c #513848",
"a@	c #978892",
"b@	c #E2D6D1",
"c@	c #D9AA78",
"d@	c #C99035",
"e@	c #D09B2D",
"f@	c #E6B348",
"g@	c #F7DBA2",
"h@	c #FEFEFC",
"i@	c #FAFAFA",
"j@	c #908B8B",
"k@	c #574D4D",
"l@	c #C7C4C4",
"m@	c #A5A2AC",
"n@	c #608663",
"o@	c #059005",
"p@	c #2DB82D",
"q@	c #21AF21",
"r@	c #088A08",
"s@	c #527453",
"t@	c #C9CACB",
"u@	c #EFEFF1",
"v@	c #F4F4F5",
"w@	c #F6F6F7",
"x@	c #C7C5C6",
"y@	c #7A7579",
"z@	c #3A3238",
"A@	c #503D49",
"B@	c #452D3C",
"C@	c #34252D",
"D@	c #A19D9D",
"E@	c #B0B083",
"F@	c #747F0E",
"G@	c #5A8D05",
"H@	c #739503",
"I@	c #B79C01",
"J@	c #E7B131",
"K@	c #FBF0D8",
"L@	c #FEFDFD",
"M@	c #CBC8C8",
"N@	c #584E4E",
"O@	c #4D4242",
"P@	c #948D8D",
"Q@	c #C9C8CC",
"R@	c #68956A",
"S@	c #039403",
"T@	c #20B720",
"U@	c #12A812",
"V@	c #088608",
"W@	c #577858",
"X@	c #D1D2D3",
"Y@	c #D5D5D6",
"Z@	c #E5E4E5",
"`@	c #B5B2B4",
" #	c #756E73",
".#	c #5F505A",
"+#	c #553F4E",
"@#	c #3E2936",
"##	c #24171D",
"$#	c #131010",
"%#	c #2B3F27",
"&#	c #217F18",
"*#	c #0D9504",
"=#	c #099D02",
"-#	c #179B01",
";#	c #6C9A01",
">#	c #CE9A0A",
",#	c #F5E0BA",
"'#	c #F3F3F3",
")#	c #817979",
"!#	c #655B5B",
"~#	c #DCDADA",
"{#	c #D7D7D9",
"]#	c #629663",
"^#	c #019801",
"/#	c #16B716",
"(#	c #0BA80B",
"_#	c #0A840A",
":#	c #476647",
"<#	c #9A9A9B",
"[#	c #979797",
"}#	c #8D898B",
"|#	c #80767D",
"1#	c #695763",
"2#	c #786471",
"3#	c #7F767A",
"4#	c #302B2A",
"5#	c #0F280C",
"6#	c #055D04",
"7#	c #019901",
"8#	c #12AF12",
"9#	c #0DB00C",
"0#	c #079D01",
"a#	c #579302",
"b#	c #C48D13",
"c#	c #F5E1C7",
"d#	c #E9E8E8",
"e#	c #807979",
"f#	c #ABA6A6",
"g#	c #639864",
"h#	c #039A03",
"i#	c #31BE31",
"j#	c #15AA15",
"k#	c #067F06",
"l#	c #466446",
"m#	c #969595",
"n#	c #9D989B",
"o#	c #5F555C",
"p#	c #6B5764",
"q#	c #523849",
"r#	c #877680",
"s#	c #E1E6E0",
"t#	c #537B51",
"u#	c #056F04",
"v#	c #009600",
"w#	c #24B424",
"x#	c #39C239",
"y#	c #13AF13",
"z#	c #149402",
"A#	c #767F03",
"B#	c #D79E56",
"C#	c #FCF3EC",
"D#	c #E0DEDE",
"E#	c #8D8686",
"F#	c #4E4444",
"G#	c #8F8888",
"H#	c #E0E0E1",
"I#	c #5F9660",
"J#	c #099A09",
"K#	c #4CC14C",
"L#	c #13AA13",
"M#	c #097D09",
"N#	c #577157",
"O#	c #968F94",
"P#	c #84757F",
"Q#	c #654F5D",
"R#	c #4D3444",
"S#	c #8F8089",
"T#	c #EBEAEA",
"U#	c #D6E5D6",
"V#	c #74AF74",
"W#	c #148D14",
"X#	c #019D01",
"Y#	c #1EB01E",
"Z#	c #3BC03B",
"`#	c #1DB21D",
" $	c #028F00",
".$	c #286602",
"+$	c #896027",
"@$	c #EECFBC",
"#$	c #D5D3D3",
"$$	c #817A7A",
"%$	c #615757",
"&$	c #BAB6B6",
"*$	c #589058",
"=$	c #149C14",
"-$	c #61C461",
";$	c #14AC14",
">$	c #087B08",
",$	c #456043",
"'$	c #7F6E79",
")$	c #634B5B",
"!$	c #4A3140",
"~$	c #46353C",
"{$	c #959390",
"]$	c #A1C3A1",
"^$	c #4C9A4C",
"/$	c #0D8F0D",
"($	c #06A506",
"_$	c #19B619",
":$	c #1FBB1F",
"<$	c #0FAD0F",
"[$	c #068E06",
"}$	c #246A23",
"|$	c #2C3D27",
"1$	c #534B49",
"2$	c #D2D0D0",
"3$	c #CAC7C7",
"4$	c #766E6E",
"5$	c #857E7E",
"6$	c #CCC9C9",
"7$	c #E6E7E7",
"8$	c #59935A",
"9$	c #159E15",
"0$	c #57C057",
"a$	c #1AAC1A",
"b$	c #067905",
"c$	c #2F4A2C",
"d$	c #553E4D",
"e$	c #47303D",
"f$	c #47393E",
"g$	c #4E4D47",
"h$	c #275424",
"i$	c #0F790F",
"j$	c #049304",
"k$	c #41C341",
"l$	c #27BD27",
"m$	c #02A702",
"n$	c #189518",
"o$	c #85BC85",
"p$	c #D8DDD7",
"q$	c #DAD8D8",
"r$	c #D7D5D5",
"s$	c #B6B2B2",
"t$	c #6B6262",
"u$	c #483E3E",
"v$	c #8E8888",
"w$	c #E4E3E3",
"x$	c #ECEDED",
"y$	c #5A945B",
"z$	c #039F03",
"A$	c #1AB71A",
"B$	c #0EA60E",
"C$	c #047404",
"D$	c #253420",
"E$	c #422E39",
"F$	c #4B4144",
"G$	c #50504D",
"H$	c #315D30",
"I$	c #057704",
"J$	c #049B04",
"K$	c #27B427",
"L$	c #5CC85C",
"M$	c #41BB41",
"N$	c #01A101",
"O$	c #319F31",
"P$	c #9EC89E",
"Q$	c #FBFCFB",
"R$	c #FAF9F9",
"S$	c #B3AEAE",
"T$	c #615858",
"U$	c #4C4141",
"V$	c #483D3D",
"W$	c #413939",
"X$	c #908C8C",
"Y$	c #ECEBEB",
"Z$	c #E6E9E7",
"`$	c #468C47",
" %	c #0FAC0F",
".%	c #0CBC0C",
"+%	c #02A601",
"@%	c #066B05",
"#%	c #2B3026",
"$%	c #514C4D",
"%%	c #4A4F49",
"&%	c #245C24",
"*%	c #048004",
"=%	c #0FA90F",
"-%	c #41B941",
";%	c #46B946",
">%	c #0B980B",
",%	c #5BB25B",
"'%	c #C7DEC7",
")%	c #F4F4F4",
"!%	c #A6A1A1",
"~%	c #554B4B",
"{%	c #453B3B",
"]%	c #3C3433",
"^%	c #453D3D",
"/%	c #9A9696",
"(%	c #F2F2F2",
"_%	c #CBD1CB",
":%	c #2C7B2B",
"<%	c #24B824",
"[%	c #1CC41C",
"}%	c #00A800",
"|%	c #0A6D0A",
"1%	c #374636",
"2%	c #3C553C",
"3%	c #1A631A",
"4%	c #028A02",
"5%	c #00AB00",
"6%	c #02A102",
"7%	c #049D04",
"8%	c #0D8D0D",
"9%	c #7EBE7E",
"0%	c #E5EFE5",
"a%	c #E7E6E6",
"b%	c #8F8B8A",
"c%	c #3D3735",
"d%	c #2A3423",
"e%	c #20421B",
"f%	c #204F1D",
"g%	c #7C8F7A",
"h%	c #F9F9F9",
"i%	c #9C9E9A",
"j%	c #1B6E1A",
"k%	c #36C336",
"l%	c #33CD33",
"m%	c #01A601",
"n%	c #046E04",
"o%	c #155915",
"p%	c #096C09",
"q%	c #009100",
"r%	c #00AA00",
"s%	c #00B200",
"t%	c #00A400",
"u%	c #018C01",
"v%	c #126F12",
"w%	c #3C5E38",
"x%	c #D1D1CF",
"y%	c #D5D4D4",
"z%	c #6F726C",
"A%	c #22351D",
"B%	c #134A10",
"C%	c #066905",
"D%	c #018B01",
"E%	c #099C09",
"F%	c #51A551",
"G%	c #DEEADE",
"H%	c #74706F",
"I%	c #11690F",
"J%	c #30C330",
"K%	c #42D242",
"L%	c #07B007",
"M%	c #018601",
"N%	c #017F01",
"O%	c #029502",
"P%	c #13B413",
"Q%	c #08BB08",
"R%	c #00AC00",
"S%	c #038A03",
"T%	c #1F5F1F",
"U%	c #465346",
"V%	c #585353",
"W%	c #958E8E",
"X%	c #EDF0EC",
"Y%	c #C1CDC0",
"Z%	c #5D7C5B",
"`%	c #12560F",
" &	c #067205",
".&	c #079F07",
"+&	c #28B528",
"@&	c #2FBC2F",
"#&	c #2EA02E",
"$&	c #B9D5B9",
"%&	c #4C5646",
"&&	c #047104",
"*&	c #1ABB1A",
"=&	c #40D040",
"-&	c #11BD11",
";&	c #05AF05",
">&	c #16B116",
",&	c #2FC12F",
"'&	c #25C625",
")&	c #04B204",
"!&	c #009300",
"~&	c #126512",
"{&	c #434F43",
"]&	c #686B68",
"^&	c #606C5F",
"/&	c #375132",
"(&	c #467E44",
"_&	c #207720",
":&	c #047904",
"<&	c #019101",
"[&	c #06A106",
"}&	c #14AD14",
"|&	c #30BA30",
"1&	c #36BC36",
"2&	c #16AE16",
"3&	c #168F16",
"4&	c #B3D2B3",
"5&	c #315A2F",
"6&	c #008600",
"7&	c #0AB80A",
"8&	c #32CB32",
"9&	c #1BC31B",
"0&	c #16C016",
"a&	c #35CB35",
"b&	c #27C827",
"c&	c #04B604",
"d&	c #00A100",
"e&	c #007A00",
"f&	c #105C10",
"g&	c #2C592C",
"h&	c #2A622A",
"i&	c #0E5E0E",
"j&	c #037003",
"k&	c #008200",
"l&	c #059B05",
"m&	c #0FAA0F",
"n&	c #33B933",
"o&	c #28BD28",
"p&	c #15B615",
"q&	c #249424",
"r&	c #89BB88",
"s&	c #F3F7F3",
"t&	c #297528",
"u&	c #009D00",
"v&	c #06BA06",
"w&	c #20C420",
"x&	c #1AC21A",
"y&	c #1CC31C",
"z&	c #16C216",
"A&	c #00BA00",
"B&	c #00B400",
"C&	c #00A000",
"D&	c #008300",
"E&	c #007700",
"F&	c #027C02",
"G&	c #008F00",
"H&	c #1BAA1B",
"I&	c #4FC04F",
"J&	c #5BC45A",
"K&	c #3FBB3F",
"L&	c #0BAA0B",
"M&	c #029A02",
"N&	c #249724",
"O&	c #6DAF6D",
"P&	c #BDD6BD",
"Q&	c #249924",
"R&	c #00AE00",
"S&	c #1DC41D",
"T&	c #2CC92C",
"U&	c #1BC21B",
"V&	c #11BF11",
"W&	c #04BB04",
"X&	c #00A300",
"Y&	c #009E00",
"Z&	c #00A700",
"`&	c #00B000",
" *	c #06B406",
".*	c #2DB92D",
"+*	c #46BA46",
"@*	c #25A725",
"#*	c #0C960C",
"$*	c #3DA43D",
"%*	c #7EBA7E",
"&*	c #C6DBC6",
"**	c #F7F9F7",
"=*	c #20AE20",
"-*	c #0CB90C",
";*	c #45D345",
">*	c #39CE39",
",*	c #17C117",
"'*	c #10BF10",
")*	c #0CBE0C",
"!*	c #04BC04",
"~*	c #09BC09",
"{*	c #0DB80D",
"]*	c #00B100",
"^*	c #00B800",
"/*	c #00B700",
"(*	c #00AF00",
"_*	c #088108",
":*	c #1F711E",
"<*	c #769E75",
"[*	c #DFEADF",
"}*	c #21B521",
"|*	c #28C728",
"1*	c #50D750",
"2*	c #2AC82A",
"3*	c #0FBF0F",
"4*	c #0FBE0F",
"5*	c #18C218",
"6*	c #2ECA2E",
"7*	c #37CD37",
"8*	c #22C422",
"9*	c #01B601",
"0*	c #00B600",
"a*	c #00A500",
"b*	c #078A07",
"c*	c #176717",
"d*	c #295A29",
"e*	c #4D674D",
"f*	c #5F645C",
"g*	c #898483",
"h*	c #EFEEEE",
"i*	c #2FC22F",
"j*	c #38CE38",
"k*	c #13C013",
"l*	c #0EBE0E",
"m*	c #18C118",
"n*	c #23C523",
"o*	c #0BBB0B",
"p*	c #00A600",
"q*	c #009800",
"r*	c #008400",
"s*	c #057305",
"t*	c #125D12",
"u*	c #1C5C1C",
"v*	c #236223",
"w*	c #255F25",
"x*	c #2D5229",
"y*	c #839A81",
"z*	c #C7D8C7",
"A*	c #D9E4D9",
"B*	c #E9EFE9",
"C*	c #FAFCFA",
"D*	c #4DCE4D",
"E*	c #38CB38",
"F*	c #2FC62F",
"G*	c #2EC62E",
"H*	c #2CC62C",
"I*	c #30C830",
"J*	c #2CC52C",
"K*	c #24C224",
"L*	c #20BE20",
"M*	c #20BD20",
"N*	c #20B120",
"O*	c #20A820",
"P*	c #209B20",
"Q*	c #20A120",
"R*	c #209C20",
"S*	c #209720",
"T*	c #219321",
"U*	c #248B24",
"V*	c #288527",
"W*	c #409740",
"X*	c #529C52",
"Y*	c #69A769",
"Z*	c #9BC39B",
"`*	c #D9E7D9",
"  . + @ # $ % & * = - ; > , ' ) ! ~ { ] ^ / ( _ : < [ } | 1 2 3 ",
"4 5 6 7 8 9 0 a b c d e f g h i j k l m n o p q r s t u v | w x ",
"y z A B C D E b F G H I J K L M N O P Q R S T U V W X Y Z `  . .",
"..+.@.#.$.%.&.*.=.-.;.>.,.'.).!.~.{./ ].].^./.(._.:.<.[.}. . . .",
"|.1.2.3.4.5.6.7.8.9.0.a.b.c.d.e.f.g.S h.< i.j.k.l.m.n.o.x  . . .",
"p.q.r.s.t.u.v.w.x.y.z.A.B.C.D.E.F.G.H.I.J.K.L.M.N.O.P.Q.R. . . .",
"S.T.U.V.W.X.Y.Z.`. +.+++@+#+n $+%+&+*+=+-+;+>+,+'+)+!+~+{+x  . .",
"]+^+/+(+_+:+<+[+}+.+|+1+2+3+4+5+6+7+8+9+0+a+b+c+x d+e+f+g+h+ . .",
"i+j+k+l+m+n+o+p+q+++r+^ / ].s+t+u+v+w+x+y+z+A+ .x B+C+D+E+F+ . .",
"G+H+I+J+K+L+M+N+O+P+E.Q+S : R+S+T+U+V+W+X+x Y+ .x Z+`+ @.@+@x  .",
"@@#@$@%@&@*@=@-@;@n o p >@,@'@)@!@~@| {@]@^@/@x  . .(@_@:@<@[@ .",
"}@|@1@2@2@3@4@5@{.( _ >@6@7@8@9@0@a@b@c@d@e@f@g@h@ .i@j@f+k@l@x ",
"m@n@o@p@q@r@s@t@u@v@w@x@y@z@A@B@C@D@E@F@G@H@I@J@K@x L@M@N@O@P@i@",
"Q@R@S@T@U@V@W@X@Y@Z@`@ #.#+#@###$#%#&#*#=#-#;#>#,#x L@'#)#O@!#~#",
"{#]#^#/#(#_#:#<#[#}#|#1#>+2#3#4#5#6#7#8#9#0#a#b#c#x  .d#e#O@.@f#",
"!.g#h#i#j#k#l#m#n#o#p#q#r#3 s#t#u#v#w#x#y#z#A#B#C#x D#E#F#O@O@G#",
"H#I#J#K#L#M#N#O#P#Q#R#S#T#U#V#W#X#Y#Z#`# $.$+$@$x #$$$O@O@O@%$&$",
"l *$=$-$;$>$,$'$)$!$~${$]$^$/$($_$:$<$[$}$|$1$2$3$4$O@O@O@5$6$Z+",
"7$8$9$0$a$b$c$d$e$f$g$h$i$j$<$k$l$m$n$o$p$q$r$s$t$O@f+u$v$w$x  .",
"x$y$z$A$B$C$D$E$F$G$H$I$J$K$L$M$N$O$P$Q$ .R$S$T$U$V$W$X$Y$ . . .",
"Z$`$ %.%+%@%#%$%%%&%*%N$=%-%;%>%,%'%x  .)%!%~%{%]%^%/%(% . . . .",
"_%:%<%[%}%|%1%2%3%4%}%5%6%7%8%9%0% .x a%b%c%d%e%f%g%h% . . . . .",
"i%j%k%l%m%n%o%p%q%r%s%t%u%v%w%x% .x y%z%A%B%C%D%E%F%G% . . . . .",
"H%I%J%K%L%M%N%O%P%Q%R%S%T%U%V%W%X%Y%Z%`% &D%.&+&@&#&$&x  . . . .",
"%&&&*&=&-&;&>&,&'&)&!&~&{&]&^&/&(&_&:&<&[&}&|&1&2&3&4&x  . . . .",
"5&6&7&8&9&0&a&b&c&d&e&f&g&h&i&j&k&l&m&n&o&p& %l&q&r&s& . . . . .",
"t&u&v&w&x&y&z&A&B&C&D&E&F&D&G&u&H&I&J&K&L&M&N&O&P&Y+ . . . . . .",
"Q&R&S&T&U&V&W&A&B&X&u&Y&Z&R%`& *.*+*@*#*$*%*&***x  . . . . . . .",
"=*-*;*>*,*'*)*!*~*{*R&]*^*/*(*d&j$_*:*<*[*Q$x  . . . . . . . . .",
"}*|*1*2*3*4*5*6*7*8*9*0*`&a*b*c*d*e*f*g*h*x x  . . . . . . . . .",
"i*j*6*k*l*m*n*w&o*9*]*p*q*r*s*t*u*v*w*x*y*z*A*B*C*x  . . . . . .",
"D*E*F*G*H*I*J*K*L*M*T@N*O*P*Q*Q*R*S*T*U*V*W*X*Y*Z*`*Y+ . . . . ."};
